<svg width="177" height="133" viewBox="0 0 177 133" fill="none" xmlns="http://www.w3.org/2000/svg">
<g clip-path="url(#clip0_40000047_15947)">
<path d="M0 6.90714C0 3.09243 3.09243 0 6.90713 0H88V133H6.90714C3.09243 133 0 129.908 0 126.093V6.90714Z" fill="white"/>
<rect x="53.5305" y="31.0823" width="110.514" height="89.7927" rx="5.18035" stroke="#E9E9E9" stroke-width="3.45357"/>
<rect x="10.3604" y="10.3613" width="34.5357" height="8.63392" rx="4.31696" fill="#2463EB"/>
<rect x="10.3604" y="24.1758" width="34.5357" height="8.63392" rx="4.31696" fill="#E9E9E9"/>
<rect x="10.3604" y="39.7168" width="34.5357" height="8.63392" rx="4.31696" fill="#E9E9E9"/>
<rect x="10.3604" y="53.5312" width="34.5357" height="8.63392" rx="4.31696" fill="#E9E9E9"/>
<rect x="10.3604" y="113.967" width="34.5357" height="8.63392" rx="4.31696" fill="#E9E9E9"/>
<rect x="51.8037" y="10.3613" width="34.5357" height="8.63392" rx="4.31696" fill="#E9E9E9"/>
</g>
<g clip-path="url(#clip1_40000047_15947)">
<path d="M88 0H169.159C172.974 0 176.066 3.09243 176.066 6.90713V126.055C176.066 129.87 172.974 132.962 169.159 132.962H88V0Z" fill="#1A1D1F"/>
<rect x="53.4641" y="31.0823" width="110.514" height="89.7927" rx="5.18035" fill="#3B4048"/>
<rect x="53.4641" y="31.0823" width="110.514" height="89.7927" rx="5.18035" stroke="#33383F" stroke-width="3.45357"/>
<rect x="157.071" y="10.3613" width="8.63392" height="8.63392" rx="3.45357" fill="#2463EB"/>
<rect x="146.71" y="10.3613" width="8.63392" height="8.63392" rx="3.45357" fill="#3B4048"/>
</g>
<defs>
<clipPath id="clip0_40000047_15947">
<path d="M0 6.90714C0 3.09243 3.09243 0 6.90713 0H88V133H6.90714C3.09243 133 0 129.908 0 126.093V6.90714Z" fill="white"/>
</clipPath>
<clipPath id="clip1_40000047_15947">
<path d="M88 0H169.159C172.974 0 176.066 3.09243 176.066 6.90713V126.055C176.066 129.87 172.974 132.962 169.159 132.962H88V0Z" fill="white"/>
</clipPath>
</defs>
</svg>
