<svg width="7" height="13" viewBox="0 0 7 13" fill="none" xmlns="http://www.w3.org/2000/svg">
<path d="M6.58591 0.164218C6.63821 0.216459 6.6797 0.278498 6.70801 0.346784C6.73632 0.415071 6.75089 0.488265 6.75089 0.562187C6.75089 0.636108 6.73632 0.709306 6.70801 0.777592C6.6797 0.845878 6.63821 0.907914 6.58591 0.960155L1.35818 6.18719L6.58591 11.4142C6.69146 11.5198 6.75076 11.6629 6.75076 11.8122C6.75076 11.9615 6.69146 12.1046 6.58591 12.2102C6.48036 12.3157 6.33721 12.375 6.18794 12.375C6.03868 12.375 5.89552 12.3157 5.78997 12.2102L0.164974 6.58516C0.112674 6.53292 0.0711852 6.47088 0.0428778 6.40259C0.0145704 6.3343 0 6.26111 0 6.18719C0 6.11327 0.0145704 6.04007 0.0428778 5.97178C0.0711852 5.9035 0.112674 5.84146 0.164974 5.78922L5.78997 0.164218C5.84222 0.111918 5.90425 0.0704288 5.97254 0.0421219C6.04083 0.013814 6.11402 -0.00075531 6.18794 -0.00075531C6.26186 -0.00075531 6.33506 0.013814 6.40335 0.0421219C6.47163 0.0704288 6.53367 0.111918 6.58591 0.164218Z" fill="#E9E9E9"/>
</svg>
