<svg width="20" height="17" viewBox="0 0 20 17" fill="none" xmlns="http://www.w3.org/2000/svg">
<path d="M18 3.00001H10.0603L7.5 0.439695C7.36122 0.299801 7.19601 0.188889 7.01398 0.113407C6.83196 0.0379245 6.63674 -0.000621974 6.43969 7.58902e-06H1.5C1.10218 7.58902e-06 0.720644 0.158043 0.43934 0.439347C0.158035 0.720652 0 1.10218 0 1.50001V15.0581C0.000496116 15.4404 0.152567 15.8068 0.422863 16.0771C0.69316 16.3474 1.05962 16.4995 1.44188 16.5H18.0834C18.459 16.4995 18.819 16.3501 19.0846 16.0846C19.3501 15.819 19.4995 15.459 19.5 15.0834V4.50001C19.5 4.10218 19.342 3.72065 19.0607 3.43935C18.7794 3.15804 18.3978 3.00001 18 3.00001ZM1.5 1.50001H6.43969L7.93969 3.00001H1.5V1.50001ZM18 15H1.5V4.50001H18V15Z" fill="#E9E9E9"/>
</svg>
