<svg width="36" height="33" viewBox="0 0 36 33" fill="black" xmlns="http://www.w3.org/2000/svg">
<g clip-path="url(#clip0_776_13220)">
<path d="M31.072 32.4794C33.7981 32.4794 36.008 30.328 36.008 27.6743C36.008 25.0205 33.7981 22.8691 31.072 22.8691C28.3459 22.8691 26.136 25.0205 26.136 27.6743C26.136 30.328 28.3459 32.4794 31.072 32.4794Z" fill="#2463EB"/>
<path fill-rule="evenodd" clip-rule="evenodd" d="M16.2222 0.0752021C6.73599 -0.81905 -1.56214 6.37074 0.250589 15.8498C1.97758 24.8758 6.25831 32.4769 15.6894 32.4769C20.8459 32.4769 22.7994 25.77 25.935 22.2586C28.5377 19.3433 32.6163 17.9006 33.1859 14.6694C34.8271 5.3334 25.3164 0.927722 16.2222 0.0752021ZM14.9361 23.0932C10.3247 23.0932 6.58901 19.4566 6.58901 14.9675C6.58901 10.4783 10.3247 6.84171 14.9361 6.84171C19.5476 6.84171 23.2832 10.4783 23.2832 14.9675C23.2832 19.4566 19.5476 23.0932 14.9361 23.0932Z" fill="white"/>
</g>
<defs>
<clipPath id="clip0_776_13220">
<rect width="36.0096" height="32.4792" fill="black"/>
</clipPath>
</defs>
</svg>
