<svg width="30" height="30" viewBox="0 0 30 30" fill="none" xmlns="http://www.w3.org/2000/svg">
<path d="M25.7687 28.3808C28.0151 28.3808 29.8361 26.6081 29.8361 24.4213C29.8361 22.2345 28.0151 20.4618 25.7687 20.4618C23.5224 20.4618 21.7013 22.2345 21.7013 24.4213C21.7013 26.6081 23.5224 28.3808 25.7687 28.3808Z" fill="#2463EB"/>
<path fill-rule="evenodd" clip-rule="evenodd" d="M13.5313 1.68111C5.71443 0.944225 -1.12342 6.86877 0.370309 14.6797C1.79339 22.1174 5.32081 28.3809 13.0922 28.3809C17.3413 28.3809 18.9511 22.8542 21.5348 19.9607C23.6795 17.5585 27.0404 16.3697 27.5098 13.7071C28.8622 6.01399 21.0252 2.38361 13.5313 1.68111ZM12.4715 20.6485C8.67161 20.6485 5.59331 17.6518 5.59331 13.9527C5.59331 10.2535 8.67161 7.25687 12.4715 7.25687C16.2715 7.25687 19.3498 10.2535 19.3498 13.9527C19.3498 17.6518 16.2715 20.6485 12.4715 20.6485Z" fill="#1E344F"/>
</svg>
